<?xml version="1.0" encoding="utf-8"?>
<!-- Generator: Adobe Illustrator 15.0.2, SVG Export Plug-In . SVG Version: 6.00 Build 0)  -->
<!DOCTYPE svg PUBLIC "-//W3C//DTD SVG 1.1//EN" "http://www.w3.org/Graphics/SVG/1.1/DTD/svg11.dtd">
<svg version="1.1" id="Layer_1" xmlns="http://www.w3.org/2000/svg" xmlns:xlink="http://www.w3.org/1999/xlink" x="0px" y="0px"
	 width="281px" height="120px" viewBox="0 0 281 120" enable-background="new 0 0 281 120" xml:space="preserve">
<rect fill="#FFFFFF" width="281" height="120"/>
<g>
	<g>
		<path fill="#666666" d="M140.831,53.314c2.187,0,5.287,0.607,6.746,1.519c0,1.823-1.884,6.078-3.1,6.747
			c-0.789-0.305-3.889-1.824-6.32-1.824c-1.337,0-2.492,0.426-3.343,1.884c-0.972,1.641-1.276,3.403-1.276,6.199
			c0,2.917,0.79,4.559,1.884,5.834c1.033,1.216,2.856,1.459,4.133,1.459c2.37,0,5.167-0.912,6.989-1.641
			c0.426,1.58,0.912,3.402,1.154,4.861c-3.949,2.127-8.751,2.979-11.243,2.979c-7.415,0-13.188-4.619-13.188-12.217
			C123.266,60.546,130.073,53.314,140.831,53.314z"/>
		<path fill="#666666" d="M154.201,78.414c-2.796-2.369-4.498-5.651-4.498-10.332c0-4.801,2.127-9.116,5.835-11.851
			c2.613-1.945,6.26-2.917,9.846-2.917c3.222,0,6.017,0.79,8.326,2.249c3.161,1.945,5.53,5.834,5.53,11.244
			c0,5.348-2.917,9.906-6.563,12.216c-2.31,1.52-5.349,2.31-8.873,2.31S156.633,80.48,154.201,78.414z M167.268,75.133
			c1.154-1.58,1.398-4.012,1.398-8.145c0-3.707-0.486-5.591-1.094-6.989c-0.608-1.276-1.764-1.884-2.857-1.884
			c-1.033,0-2.006,0.364-2.734,1.458c-1.033,1.459-1.641,3.768-1.641,7.476c0,4.558,0.547,6.624,1.458,7.9
			c0.729,1.216,1.642,1.642,2.796,1.642C165.566,76.592,166.539,76.287,167.268,75.133z"/>
		<path fill="#666666" d="M202.152,78.598c-5.408,2.552-6.746,2.734-8.205,2.734c-2.369,0-4.922-0.729-7.109-2.918
			c-2.128-2.066-3.708-5.408-3.708-9.359c0-4.68,1.58-8.751,4.68-12.094c2.188-2.431,5.713-3.646,8.388-3.646
			c2.188,0,4.071,0.425,5.227,0.79l0.425-0.183c-0.061-2.735-0.122-5.834-0.183-8.873l-4.558-0.122c-0.062-1.702,0-3.464,0-5.105
			c3.586-0.304,13.735-1.581,14.403-1.581c0.061,0,0.183,0.061,0.183,0.183c0,9.724-0.243,25.222-0.243,36.283
			c0,0.365,0.121,0.607,0.365,0.607l3.1-0.182c0.061,1.52,0.061,3.403,0.061,4.983c-0.852,0.364-6.078,1.216-10.211,1.216
			c-0.911-0.668-1.58-1.58-2.188-2.734H202.152z M201.727,60.061c-0.85-0.365-2.188-0.851-3.646-0.851
			c-1.154,0-2.309,0.425-3.038,1.641c-0.911,1.458-1.458,3.464-1.458,7.11c0,2.432,0.363,4.193,1.215,5.531
			c0.486,0.729,1.641,1.58,2.734,1.58c1.217,0,2.311-0.243,3.891-1.094c0.182-0.122,0.242-0.426,0.242-1.094
			C201.666,68.934,201.666,64.011,201.727,60.061z"/>
		<path fill="#666666" d="M233.026,53.314c3.769,0,6.624,1.397,8.266,3.221c1.944,2.31,3.1,5.531,3.1,9.481
			c-0.062,0.851-2.796,3.464-3.282,3.524c-1.641,0.183-7.84,0.183-13.249,0.183c0.122,2.006,0.851,3.222,1.642,3.95
			c1.397,1.338,2.978,1.459,4.497,1.459c2.674,0,6.624-0.973,8.569-1.701c0.486,1.58,0.912,3.524,1.154,5.044
			c-3.525,1.641-8.873,2.856-11.79,2.856c-8.022,0-14.222-3.951-14.222-12.58C217.711,60.121,223.91,53.314,233.026,53.314z
			 M228.955,60.061c-0.73,1.215-1.155,2.37-1.095,4.801c2.128,0,5.105-0.061,6.868-0.121c0.364,0,0.547-0.243,0.547-0.668
			c0-1.277-0.243-2.918-0.729-3.83c-0.486-1.094-1.397-1.823-2.735-1.823C230.838,58.419,229.805,58.723,228.955,60.061z"/>
	</g>
</g>
<g>
	<g>
		<path fill="#979595" d="M136.189,92.353c0.268-0.319,0.67-0.638,1.207-0.957c0.959-0.571,2.008-0.856,3.15-0.856
			c2.2,0,3.297,1.562,3.297,4.686v8.965h-2.895v-8.387c0-1.359-0.16-2.225-0.477-2.594c-0.22-0.253-0.715-0.378-1.488-0.378
			c-0.789,0-1.604,0.352-2.441,1.058c0.064,0.352,0.1,0.797,0.1,1.336v8.965h-2.924v-8.387c0-1.359-0.158-2.225-0.478-2.594
			c-0.218-0.253-0.714-0.378-1.485-0.378c-0.807,0-1.604,0.352-2.393,1.058v10.301h-2.92V90.766h2.693v1.512
			c1.041-1.159,2.436-1.738,4.182-1.738C134.762,90.539,135.718,91.143,136.189,92.353z"/>
		<path fill="#979595" d="M148.406,98.548c0.049,1.21,0.256,2.091,0.627,2.645c0.455,0.723,1.207,1.083,2.268,1.083
			c1.326,0,2.838-0.354,4.533-1.059v2.064c-1.646,0.758-3.344,1.135-5.086,1.135c-3.547,0-5.316-2.316-5.316-6.951
			c0-2.316,0.41-4.02,1.236-5.112c0.887-1.192,2.324-1.798,4.305-1.813c3.492-0.033,5.24,2.016,5.24,6.146v1.862H148.406z
			 M153.316,96.406c0-1.225-0.1-2.073-0.303-2.543c-0.32-0.807-1-1.209-2.041-1.209c-0.992,0-1.672,0.302-2.043,0.907
			c-0.316,0.52-0.492,1.47-0.523,2.845H153.316z"/>
		<path fill="#979595" d="M169.611,86.283v17.906h-2.697v-1.562c-1.291,1.192-2.592,1.788-3.902,1.788
			c-2.906,0-4.357-2.24-4.357-6.725c0-2.384,0.41-4.138,1.234-5.265c0.924-1.259,2.449-1.888,4.584-1.888
			c0.639,0,1.385,0.126,2.24,0.378v-4.634H169.611z M164.344,92.654c-1.037,0-1.742,0.361-2.113,1.082
			c-0.369,0.723-0.553,2.041-0.553,3.955c0,1.662,0.176,2.809,0.527,3.438c0.354,0.629,0.957,0.945,1.813,0.945
			c0.775,0,1.672-0.377,2.695-1.133v-8.01C166.176,92.747,165.389,92.654,164.344,92.654z"/>
		<path fill="#979595" d="M180.49,90.766h2.92v13.424h-2.691v-1.511c-1.127,1.159-2.604,1.737-4.434,1.737
			c-2.354,0-3.527-1.57-3.527-4.71v-8.94h2.922v8.387c0,1.36,0.186,2.225,0.555,2.594c0.25,0.253,0.799,0.377,1.637,0.377
			c0.891,0,1.764-0.352,2.619-1.057V90.766z"/>
		<path fill="#979595" d="M186.307,104.189V86.283h2.924v17.906H186.307z"/>
		<path fill="#979595" d="M192.881,91.646c1.328-0.738,2.854-1.107,4.584-1.107c3.205,0,4.811,1.326,4.811,3.979v9.672h-2.693
			v-1.611c-1.359,1.227-2.703,1.838-4.031,1.838c-2.451,0-3.678-1.527-3.678-4.584c0-1.477,0.414-2.534,1.236-3.172
			c0.76-0.572,1.992-0.857,3.691-0.857c1.027,0,1.889,0.034,2.578,0.101v-2.115c-0.084-0.671-0.76-1.008-2.023-1.008
			c-1.195,0-2.688,0.411-4.475,1.233V91.646z M194.822,99.832c0,0.891,0.201,1.479,0.605,1.764c0.236,0.168,0.658,0.252,1.268,0.252
			c0.658,0,1.551-0.336,2.684-1.008v-3.021c-0.709,0.066-1.434,0.1-2.178,0.1c-0.813,0-1.385,0.102-1.725,0.303
			C195.039,98.506,194.822,99.043,194.822,99.832z"/>
	</g>
	<g>
		<path fill="#FCC212" d="M212.115,102.253c-1.059,0.94-1.902,1.372-2.865,1.372c-2.846,0-4.506-2.794-4.506-5.613
			c0-3.977,2.793-6.457,5.037-6.457c0.965,0,1.854,0.386,2.674,1.205h0.047l0.336-4.41c0.049-0.555-0.072-1.18-0.791-1.18
			c-0.293,0-1.232,0.192-1.232,0.192l-0.215-0.649l2.553-0.771c0.482-0.145,0.844-0.218,1.182-0.218c1.033,0,1.35,1.06,1.275,1.928
			l-0.938,13.06c-0.049,0.818,0.408,1.156,0.912,1.156c0.482,0,0.965-0.266,1.469-0.723l0.533,0.506
			c-1.133,1.156-2.555,1.975-3.686,1.975c-0.795,0-1.422-0.384-1.736-1.372H212.115z M211.947,100.735
			c0-0.12,0.264-4.217,0.459-6.963c-0.578-0.603-1.229-0.964-1.881-0.964c-1.566,0-2.939,2.191-2.939,5.3
			c0,2.554,1.037,4.192,2.363,4.192c0.676,0,1.373-0.289,2.025-0.892C211.947,101.192,211.947,101,211.947,100.735z"/>
		<path fill="#FCC212" d="M220.311,94.397c0-0.819-0.41-1.156-0.918-1.156c-0.479,0-1.033,0.289-1.469,0.722l-0.531-0.505
			c1.133-1.156,2.555-1.976,3.689-1.976c1.109,0,2.191,0.819,1.949,2.892l-0.744,6.337c-0.096,0.818,0.408,1.156,0.912,1.156
			c0.484,0,1.039-0.289,1.471-0.723l0.533,0.506c-1.135,1.156-2.559,1.975-3.688,1.975c-1.107,0-2.123-0.842-1.951-2.89
			L220.311,94.397z M219.996,87.651c0-1.061,0.844-1.928,1.928-1.928c1.061,0,1.926,0.867,1.926,1.928
			c0,1.085-0.865,1.928-1.926,1.928C220.84,89.579,219.996,88.736,219.996,87.651z"/>
		<path fill="#FCC212" d="M234.355,96.06c-0.984,0-1.494-0.722-1.494-1.397c0-0.554,0.438-0.963,0.699-1.132
			c0.121-0.072,0.244-0.193,0.244-0.313c0-0.506-1.303-0.843-2.338-0.843c-1.443,0-2.387,0.675-2.387,1.445
			c0,2.217,6.625,3.084,6.625,6.434c0,2.071-1.855,3.421-4.625,3.421c-2.336,0-4.938-0.771-4.938-2.915
			c0-0.964,0.672-1.565,1.469-1.565c0.988,0,1.494,0.722,1.494,1.397c0,0.554-0.408,0.987-0.701,1.132
			c-0.143,0.072-0.24,0.169-0.24,0.289c0,0.506,1.422,0.795,2.363,0.795c1.154,0,2.576-0.603,2.576-1.881
			c0-2.263-6.529-3.299-6.529-6.094c0-1.783,1.783-3.277,4.604-3.277c1.83,0,4.576,0.747,4.648,2.94
			C235.754,95.459,235.15,96.06,234.355,96.06z"/>
		<path fill="#FCC212" d="M247.105,101.169c-1.039,1.614-2.51,2.456-4.193,2.456c-2.986,0-5.18-2.625-5.18-5.807
			c0-3.444,2.527-6.238,6.313-6.238c1.783,0,3.564,0.842,3.564,2.961c0,2.219-2.576,3.615-6.988,4.482
			c0.34,1.76,1.326,2.939,3.012,3.036c0.895,0,1.955-0.458,3.061-1.276L247.105,101.169z M240.527,98.277
			c4.047-1.109,4.553-2.939,4.625-3.976c0-0.868-0.697-1.951-1.688-1.951c-2.24,0-2.986,2.939-2.986,5.108
			C240.479,97.723,240.502,98.012,240.527,98.277z"/>
		<path fill="#FCC212" d="M251.297,94.518c0.051-0.866-0.408-1.204-0.914-1.204c-0.482,0-1.037,0.338-1.469,0.771l-0.533-0.507
			c1.133-1.156,2.553-1.975,3.688-1.975c0.893,0,1.592,0.529,1.83,1.879c0.025,0,0.025,0,0.051,0
			c1.322-1.253,3.084-1.902,4.287-1.902c2.072,0,2.529,1.686,2.41,3.42l-0.408,5.711c0,0.818,0.408,1.181,0.914,1.181
			c0.482,0,1.037-0.313,1.469-0.747l0.531,0.506c-1.133,1.156-2.555,1.975-3.686,1.975c-1.568,0-2.002-1.421-1.902-2.914
			l0.357-5.637c0.051-0.917-0.146-1.953-1.131-1.953c-0.748,0-1.736,0.481-2.771,1.301c0,0,0,0.604-0.023,0.844
			c0,0-0.457,6.818-0.58,8h-2.719L251.297,94.518z"/>
		<path fill="#FCC212" d="M269.467,91.58c3.396,0,5.494,2.77,5.494,5.902c0,2.963-2.049,6.143-5.52,6.143
			c-3.084,0-5.492-2.577-5.492-5.878C263.949,94.639,265.998,91.58,269.467,91.58z M272.164,97.217v-0.12
			c0-2.458-0.818-4.649-2.529-4.649c-2.24,0-2.797,3.541-2.842,5.469v-0.024c0,2.458,0.77,4.843,2.506,4.843
			C271.611,102.734,272.141,99.119,272.164,97.217z"/>
	</g>
</g>
<g>
	<path fill="#959494" d="M91.63,78.351L91.63,78.351v-1.813V58.939c0-6.146-1.435-11.075-4.602-14.486
		c-3.188-3.414-7.907-5.004-13.709-4.99c-5.338-0.025-9.8,1.431-12.971,4.449c-3.197-3.018-7.681-4.474-13.031-4.449
		c-5.171-0.013-9.467,1.266-12.588,3.976c-3.078-2.321-7.102-3.453-11.805-3.437C17.134,39.989,12.431,41.592,9.261,45
		c-3.159,3.4-4.59,8.337-4.59,14.474v19.418h10.563V59.447c-0.014-3.412,0.595-5.649,1.418-6.667
		c1.02-1.403,2.861-2.282,6.273-2.296c3.384,0.014,5.283,0.893,6.332,2.278l0.319,0.411c-0.337,1.78-0.515,3.696-0.515,5.765v19.412
		h10.57V58.9c-0.023-3.404,0.594-5.642,1.416-6.661c1.017-1.41,2.852-2.273,6.27-2.293c3.387,0.02,5.279,0.883,6.332,2.276
		c0.809,1.043,1.43,3.28,1.424,6.678v19.45h10.549V58.9c-0.008-3.404,0.605-5.635,1.424-6.678c1.02-1.393,2.873-2.256,6.273-2.276
		c3.406,0.02,5.286,0.883,6.334,2.276c0.816,1.036,1.441,3.274,1.432,6.678v19.45h0.072c0.059,13.823,11.274,25.018,25.118,25.018
		V92.896C98.224,92.881,91.701,86.396,91.63,78.351z"/>
	<path fill="#FAC116" d="M82.011,95.756c-6.74,4.369-14.766,6.922-23.397,6.939c-23.829-0.049-43.104-19.322-43.145-43.149
		c0.04-23.817,19.315-43.092,43.145-43.132c23.815,0.04,43.087,19.315,43.134,43.132c-0.014,7.62-2.006,14.769-5.471,20.978
		c2.206,4.457,6.527,7.551,11.488,8.043c5.032-8.506,7.928-18.422,7.928-29.021c0-31.537-25.544-57.066-57.079-57.078
		C27.079,2.479,1.534,28.009,1.534,59.546c0,31.523,25.545,57.078,57.08,57.078c12.837,0,24.679-4.233,34.212-11.382
		C88.523,103.113,84.768,99.871,82.011,95.756z"/>
</g>
</svg>
